<svg width="161" height="107" viewBox="0 0 161 107" fill="none" xmlns="http://www.w3.org/2000/svg">
<path d="M11 7H161V107H11V7Z" fill="#FFC0CB"/>
<path d="M0 0H150V100H0V0Z" fill="#ADD8E6"/>
<path d="M57.7922 58.16C56.8455 58.16 56.0322 57.96 55.3522 57.56C54.6722 57.16 54.1522 56.5533 53.7922 55.74C53.4322 54.9133 53.2522 53.8733 53.2522 52.62C53.2522 51.3533 53.4389 50.3133 53.8122 49.5C54.1989 48.6867 54.7322 48.08 55.4122 47.68C56.0922 47.28 56.8855 47.08 57.7922 47.08C58.8055 47.08 59.7122 47.3067 60.5122 47.76C61.3255 48.2133 61.9655 48.8533 62.4322 49.68C62.9122 50.5067 63.1522 51.4867 63.1522 52.62C63.1522 53.74 62.9122 54.7133 62.4322 55.54C61.9655 56.3667 61.3255 57.0133 60.5122 57.48C59.7122 57.9333 58.8055 58.16 57.7922 58.16ZM51.4322 58V43.16H54.5522V49.42L54.3522 52.6L54.4122 55.8V58H51.4322ZM57.2522 55.6C57.7722 55.6 58.2322 55.48 58.6322 55.24C59.0455 55 59.3722 54.66 59.6122 54.22C59.8655 53.7667 59.9922 53.2333 59.9922 52.62C59.9922 51.9933 59.8655 51.46 59.6122 51.02C59.3722 50.58 59.0455 50.24 58.6322 50C58.2322 49.76 57.7722 49.64 57.2522 49.64C56.7322 49.64 56.2655 49.76 55.8522 50C55.4389 50.24 55.1122 50.58 54.8722 51.02C54.6322 51.46 54.5122 51.9933 54.5122 52.62C54.5122 53.2333 54.6322 53.7667 54.8722 54.22C55.1122 54.66 55.4389 55 55.8522 55.24C56.2655 55.48 56.7322 55.6 57.2522 55.6Z" fill="black"/>
<path d="M71.665 58V55.9L71.465 55.44V51.68C71.465 51.0133 71.2583 50.4933 70.845 50.12C70.445 49.7467 69.825 49.56 68.985 49.56C68.4117 49.56 67.845 49.6533 67.285 49.84C66.7383 50.0133 66.2717 50.2533 65.885 50.56L64.765 48.38C65.3517 47.9667 66.0583 47.6467 66.885 47.42C67.7117 47.1933 68.5517 47.08 69.405 47.08C71.045 47.08 72.3183 47.4667 73.225 48.24C74.1317 49.0133 74.585 50.22 74.585 51.86V58H71.665ZM68.385 58.16C67.545 58.16 66.825 58.02 66.225 57.74C65.625 57.4467 65.165 57.0533 64.845 56.56C64.525 56.0667 64.365 55.5133 64.365 54.9C64.365 54.26 64.5183 53.7 64.825 53.22C65.145 52.74 65.645 52.3667 66.325 52.1C67.005 51.82 67.8917 51.68 68.985 51.68H71.845V53.5H69.325C68.5917 53.5 68.085 53.62 67.805 53.86C67.5383 54.1 67.405 54.4 67.405 54.76C67.405 55.16 67.5583 55.48 67.865 55.72C68.185 55.9467 68.6183 56.06 69.165 56.06C69.685 56.06 70.1517 55.94 70.565 55.7C70.9783 55.4467 71.2783 55.08 71.465 54.6L71.945 56.04C71.7183 56.7333 71.305 57.26 70.705 57.62C70.105 57.98 69.3317 58.16 68.385 58.16Z" fill="black"/>
<path d="M82.6869 58.16C81.5269 58.16 80.4935 57.9267 79.5869 57.46C78.6802 56.98 77.9669 56.32 77.4469 55.48C76.9402 54.64 76.6869 53.6867 76.6869 52.62C76.6869 51.54 76.9402 50.5867 77.4469 49.76C77.9669 48.92 78.6802 48.2667 79.5869 47.8C80.4935 47.32 81.5269 47.08 82.6869 47.08C83.8202 47.08 84.8069 47.32 85.6469 47.8C86.4869 48.2667 87.1069 48.94 87.5069 49.82L85.0869 51.12C84.8069 50.6133 84.4535 50.24 84.0269 50C83.6135 49.76 83.1602 49.64 82.6669 49.64C82.1335 49.64 81.6535 49.76 81.2269 50C80.8002 50.24 80.4602 50.58 80.2069 51.02C79.9669 51.46 79.8469 51.9933 79.8469 52.62C79.8469 53.2467 79.9669 53.78 80.2069 54.22C80.4602 54.66 80.8002 55 81.2269 55.24C81.6535 55.48 82.1335 55.6 82.6669 55.6C83.1602 55.6 83.6135 55.4867 84.0269 55.26C84.4535 55.02 84.8069 54.64 85.0869 54.12L87.5069 55.44C87.1069 56.3067 86.4869 56.98 85.6469 57.46C84.8069 57.9267 83.8202 58.16 82.6869 58.16Z" fill="black"/>
<path d="M91.8247 55.8L91.9047 52L96.9247 47.24H100.645L95.8247 52.14L94.2047 53.46L91.8247 55.8ZM89.2447 58V43.16H92.3647V58H89.2447ZM97.2647 58L93.6247 53.48L95.5847 51.06L101.045 58H97.2647Z" fill="black"/>
</svg>
