<svg width="161" height="107" viewBox="0 0 161 107" fill="none" xmlns="http://www.w3.org/2000/svg">
<path d="M11 7H161V107H11V7Z" fill="#FFC0CB"/>
<path d="M0 0H150V100H0V0Z" fill="#ADD8E6"/>
<path d="M53.1382 47.08C53.9915 47.08 54.7515 47.2533 55.4182 47.6C56.0982 47.9333 56.6315 48.4533 57.0182 49.16C57.4049 49.8533 57.5982 50.7467 57.5982 51.84V58H54.4782V52.32C54.4782 51.4533 54.2849 50.8133 53.8982 50.4C53.5249 49.9867 52.9915 49.78 52.2982 49.78C51.8049 49.78 51.3582 49.8867 50.9582 50.1C50.5715 50.3 50.2649 50.6133 50.0382 51.04C49.8249 51.4667 49.7182 52.0133 49.7182 52.68V58H46.5982V43.16H49.7182V50.22L49.0182 49.32C49.4049 48.6 49.9582 48.0467 50.6782 47.66C51.3982 47.2733 52.2182 47.08 53.1382 47.08Z" fill="black"/>
<path d="M65.6245 58.16C64.4778 58.16 63.4578 57.92 62.5645 57.44C61.6845 56.96 60.9845 56.3067 60.4645 55.48C59.9578 54.64 59.7045 53.6867 59.7045 52.62C59.7045 51.54 59.9578 50.5867 60.4645 49.76C60.9845 48.92 61.6845 48.2667 62.5645 47.8C63.4578 47.32 64.4778 47.08 65.6245 47.08C66.7578 47.08 67.7711 47.32 68.6645 47.8C69.5578 48.2667 70.2578 48.9133 70.7645 49.74C71.2711 50.5667 71.5245 51.5267 71.5245 52.62C71.5245 53.6867 71.2711 54.64 70.7645 55.48C70.2578 56.3067 69.5578 56.96 68.6645 57.44C67.7711 57.92 66.7578 58.16 65.6245 58.16ZM65.6245 55.6C66.1445 55.6 66.6111 55.48 67.0245 55.24C67.4378 55 67.7645 54.66 68.0045 54.22C68.2445 53.7667 68.3645 53.2333 68.3645 52.62C68.3645 51.9933 68.2445 51.46 68.0045 51.02C67.7645 50.58 67.4378 50.24 67.0245 50C66.6111 49.76 66.1445 49.64 65.6245 49.64C65.1045 49.64 64.6378 49.76 64.2245 50C63.8111 50.24 63.4778 50.58 63.2245 51.02C62.9845 51.46 62.8645 51.9933 62.8645 52.62C62.8645 53.2333 62.9845 53.7667 63.2245 54.22C63.4778 54.66 63.8111 55 64.2245 55.24C64.6378 55.48 65.1045 55.6 65.6245 55.6Z" fill="black"/>
<path d="M87.3899 47.08C88.2433 47.08 88.9966 47.2533 89.6499 47.6C90.3166 47.9333 90.8366 48.4533 91.2099 49.16C91.5966 49.8533 91.7899 50.7467 91.7899 51.84V58H88.6699V52.32C88.6699 51.4533 88.4899 50.8133 88.1299 50.4C87.7699 49.9867 87.2633 49.78 86.6099 49.78C86.1566 49.78 85.7499 49.8867 85.3899 50.1C85.0299 50.3 84.7499 50.6067 84.5499 51.02C84.3499 51.4333 84.2499 51.96 84.2499 52.6V58H81.1299V52.32C81.1299 51.4533 80.9499 50.8133 80.5899 50.4C80.2433 49.9867 79.7433 49.78 79.0899 49.78C78.6366 49.78 78.2299 49.8867 77.8699 50.1C77.5099 50.3 77.2299 50.6067 77.0299 51.02C76.8299 51.4333 76.7299 51.96 76.7299 52.6V58H73.6099V47.24H76.5899V50.18L76.0299 49.32C76.4033 48.5867 76.9299 48.0333 77.6099 47.66C78.3033 47.2733 79.0899 47.08 79.9699 47.08C80.9566 47.08 81.8166 47.3333 82.5499 47.84C83.2966 48.3333 83.7899 49.0933 84.0299 50.12L82.9299 49.82C83.2899 48.98 83.8633 48.3133 84.6499 47.82C85.4499 47.3267 86.3633 47.08 87.3899 47.08Z" fill="black"/>
<path d="M100.005 58.16C98.7779 58.16 97.6979 57.92 96.7646 57.44C95.8446 56.96 95.1313 56.3067 94.6246 55.48C94.1179 54.64 93.8646 53.6867 93.8646 52.62C93.8646 51.54 94.1113 50.5867 94.6046 49.76C95.1113 48.92 95.7979 48.2667 96.6646 47.8C97.5313 47.32 98.5113 47.08 99.6046 47.08C100.658 47.08 101.605 47.3067 102.445 47.76C103.298 48.2 103.971 48.84 104.465 49.68C104.958 50.5067 105.205 51.5 105.205 52.66C105.205 52.78 105.198 52.92 105.185 53.08C105.171 53.2267 105.158 53.3667 105.145 53.5H96.4046V51.68H103.505L102.305 52.22C102.305 51.66 102.191 51.1733 101.965 50.76C101.738 50.3467 101.425 50.0267 101.025 49.8C100.625 49.56 100.158 49.44 99.6246 49.44C99.0913 49.44 98.6179 49.56 98.2046 49.8C97.8046 50.0267 97.4913 50.3533 97.2646 50.78C97.0379 51.1933 96.9246 51.6867 96.9246 52.26V52.74C96.9246 53.3267 97.0513 53.8467 97.3046 54.3C97.5713 54.74 97.9379 55.08 98.4046 55.32C98.8846 55.5467 99.4446 55.66 100.085 55.66C100.658 55.66 101.158 55.5733 101.585 55.4C102.025 55.2267 102.425 54.9667 102.785 54.62L104.445 56.42C103.951 56.98 103.331 57.4133 102.585 57.72C101.838 58.0133 100.978 58.16 100.005 58.16Z" fill="black"/>
</svg>
