<svg width="161" height="107" viewBox="0 0 161 107" fill="none" xmlns="http://www.w3.org/2000/svg">
<path d="M11 7H161V107H11V7Z" fill="#FFC0CB"/>
<path d="M0 0H150V100H0V0Z" fill="#ADD8E6"/>
<path d="M52.5071 35.08C53.3604 35.08 54.1138 35.2533 54.7671 35.6C55.4338 35.9333 55.9538 36.4533 56.3271 37.16C56.7138 37.8533 56.9071 38.7467 56.9071 39.84V46H53.7871V40.32C53.7871 39.4533 53.6071 38.8133 53.2471 38.4C52.8871 37.9867 52.3804 37.78 51.7271 37.78C51.2738 37.78 50.8671 37.8867 50.5071 38.1C50.1471 38.3 49.8671 38.6067 49.6671 39.02C49.4671 39.4333 49.3671 39.96 49.3671 40.6V46H46.2471V40.32C46.2471 39.4533 46.0671 38.8133 45.7071 38.4C45.3604 37.9867 44.8604 37.78 44.2071 37.78C43.7538 37.78 43.3471 37.8867 42.9871 38.1C42.6271 38.3 42.3471 38.6067 42.1471 39.02C41.9471 39.4333 41.8471 39.96 41.8471 40.6V46H38.7271V35.24H41.7071V38.18L41.1471 37.32C41.5204 36.5867 42.0471 36.0333 42.7271 35.66C43.4204 35.2733 44.2071 35.08 45.0871 35.08C46.0738 35.08 46.9338 35.3333 47.6671 35.84C48.4138 36.3333 48.9071 37.0933 49.1471 38.12L48.0471 37.82C48.4071 36.98 48.9804 36.3133 49.7671 35.82C50.5671 35.3267 51.4804 35.08 52.5071 35.08Z" fill="black"/>
<path d="M64.9018 46.16C63.7551 46.16 62.7351 45.92 61.8418 45.44C60.9618 44.96 60.2618 44.3067 59.7418 43.48C59.2351 42.64 58.9818 41.6867 58.9818 40.62C58.9818 39.54 59.2351 38.5867 59.7418 37.76C60.2618 36.92 60.9618 36.2667 61.8418 35.8C62.7351 35.32 63.7551 35.08 64.9018 35.08C66.0351 35.08 67.0485 35.32 67.9418 35.8C68.8351 36.2667 69.5351 36.9133 70.0418 37.74C70.5485 38.5667 70.8018 39.5267 70.8018 40.62C70.8018 41.6867 70.5485 42.64 70.0418 43.48C69.5351 44.3067 68.8351 44.96 67.9418 45.44C67.0485 45.92 66.0351 46.16 64.9018 46.16ZM64.9018 43.6C65.4218 43.6 65.8885 43.48 66.3018 43.24C66.7151 43 67.0418 42.66 67.2818 42.22C67.5218 41.7667 67.6418 41.2333 67.6418 40.62C67.6418 39.9933 67.5218 39.46 67.2818 39.02C67.0418 38.58 66.7151 38.24 66.3018 38C65.8885 37.76 65.4218 37.64 64.9018 37.64C64.3818 37.64 63.9151 37.76 63.5018 38C63.0885 38.24 62.7551 38.58 62.5018 39.02C62.2618 39.46 62.1418 39.9933 62.1418 40.62C62.1418 41.2333 62.2618 41.7667 62.5018 42.22C62.7551 42.66 63.0885 43 63.5018 43.24C63.9151 43.48 64.3818 43.6 64.9018 43.6Z" fill="black"/>
<path d="M86.6673 35.08C87.5206 35.08 88.2739 35.2533 88.9273 35.6C89.5939 35.9333 90.1139 36.4533 90.4873 37.16C90.8739 37.8533 91.0673 38.7467 91.0673 39.84V46H87.9473V40.32C87.9473 39.4533 87.7673 38.8133 87.4073 38.4C87.0473 37.9867 86.5406 37.78 85.8873 37.78C85.4339 37.78 85.0273 37.8867 84.6673 38.1C84.3073 38.3 84.0273 38.6067 83.8273 39.02C83.6273 39.4333 83.5273 39.96 83.5273 40.6V46H80.4073V40.32C80.4073 39.4533 80.2273 38.8133 79.8673 38.4C79.5206 37.9867 79.0206 37.78 78.3673 37.78C77.9139 37.78 77.5073 37.8867 77.1473 38.1C76.7873 38.3 76.5073 38.6067 76.3073 39.02C76.1073 39.4333 76.0073 39.96 76.0073 40.6V46H72.8873V35.24H75.8673V38.18L75.3073 37.32C75.6806 36.5867 76.2073 36.0333 76.8873 35.66C77.5806 35.2733 78.3673 35.08 79.2473 35.08C80.2339 35.08 81.0939 35.3333 81.8273 35.84C82.5739 36.3333 83.0673 37.0933 83.3073 38.12L82.2073 37.82C82.5673 36.98 83.1406 36.3133 83.9273 35.82C84.7273 35.3267 85.6406 35.08 86.6673 35.08Z" fill="black"/>
<path d="M99.062 46.16C97.9153 46.16 96.8953 45.92 96.002 45.44C95.122 44.96 94.422 44.3067 93.902 43.48C93.3953 42.64 93.142 41.6867 93.142 40.62C93.142 39.54 93.3953 38.5867 93.902 37.76C94.422 36.92 95.122 36.2667 96.002 35.8C96.8953 35.32 97.9153 35.08 99.062 35.08C100.195 35.08 101.209 35.32 102.102 35.8C102.995 36.2667 103.695 36.9133 104.202 37.74C104.709 38.5667 104.962 39.5267 104.962 40.62C104.962 41.6867 104.709 42.64 104.202 43.48C103.695 44.3067 102.995 44.96 102.102 45.44C101.209 45.92 100.195 46.16 99.062 46.16ZM99.062 43.6C99.582 43.6 100.049 43.48 100.462 43.24C100.875 43 101.202 42.66 101.442 42.22C101.682 41.7667 101.802 41.2333 101.802 40.62C101.802 39.9933 101.682 39.46 101.442 39.02C101.202 38.58 100.875 38.24 100.462 38C100.049 37.76 99.582 37.64 99.062 37.64C98.542 37.64 98.0753 37.76 97.662 38C97.2486 38.24 96.9153 38.58 96.662 39.02C96.422 39.46 96.302 39.9933 96.302 40.62C96.302 41.2333 96.422 41.7667 96.662 42.22C96.9153 42.66 97.2486 43 97.662 43.24C98.0753 43.48 98.542 43.6 99.062 43.6Z" fill="black"/>
<path d="M106.843 41.62V39.12H112.503V41.62H106.843Z" fill="black"/>
<path d="M56.2611 70.16C55.1011 70.16 54.0678 69.9267 53.1611 69.46C52.2544 68.98 51.5411 68.32 51.0211 67.48C50.5144 66.64 50.2611 65.6867 50.2611 64.62C50.2611 63.54 50.5144 62.5867 51.0211 61.76C51.5411 60.92 52.2544 60.2667 53.1611 59.8C54.0678 59.32 55.1011 59.08 56.2611 59.08C57.3944 59.08 58.3811 59.32 59.2211 59.8C60.0611 60.2667 60.6811 60.94 61.0811 61.82L58.6611 63.12C58.3811 62.6133 58.0278 62.24 57.6011 62C57.1878 61.76 56.7344 61.64 56.2411 61.64C55.7078 61.64 55.2278 61.76 54.8011 62C54.3744 62.24 54.0344 62.58 53.7811 63.02C53.5411 63.46 53.4211 63.9933 53.4211 64.62C53.4211 65.2467 53.5411 65.78 53.7811 66.22C54.0344 66.66 54.3744 67 54.8011 67.24C55.2278 67.48 55.7078 67.6 56.2411 67.6C56.7344 67.6 57.1878 67.4867 57.6011 67.26C58.0278 67.02 58.3811 66.64 58.6611 66.12L61.0811 67.44C60.6811 68.3067 60.0611 68.98 59.2211 69.46C58.3811 69.9267 57.3944 70.16 56.2611 70.16Z" fill="black"/>
<path d="M69.3589 59.08C70.2122 59.08 70.9722 59.2533 71.6389 59.6C72.3189 59.9333 72.8522 60.4533 73.2389 61.16C73.6256 61.8533 73.8189 62.7467 73.8189 63.84V70H70.6989V64.32C70.6989 63.4533 70.5056 62.8133 70.1189 62.4C69.7456 61.9867 69.2122 61.78 68.5189 61.78C68.0256 61.78 67.5789 61.8867 67.1789 62.1C66.7922 62.3 66.4856 62.6133 66.2589 63.04C66.0456 63.4667 65.9389 64.0133 65.9389 64.68V70H62.8189V55.16H65.9389V62.22L65.2389 61.32C65.6256 60.6 66.1789 60.0467 66.8989 59.66C67.6189 59.2733 68.4389 59.08 69.3589 59.08Z" fill="black"/>
<path d="M83.247 70V67.9L83.047 67.44V63.68C83.047 63.0133 82.8404 62.4933 82.427 62.12C82.027 61.7467 81.407 61.56 80.567 61.56C79.9937 61.56 79.427 61.6533 78.867 61.84C78.3204 62.0133 77.8537 62.2533 77.467 62.56L76.347 60.38C76.9337 59.9667 77.6404 59.6467 78.467 59.42C79.2937 59.1933 80.1337 59.08 80.987 59.08C82.627 59.08 83.9004 59.4667 84.807 60.24C85.7137 61.0133 86.167 62.22 86.167 63.86V70H83.247ZM79.967 70.16C79.127 70.16 78.407 70.02 77.807 69.74C77.207 69.4467 76.747 69.0533 76.427 68.56C76.107 68.0667 75.947 67.5133 75.947 66.9C75.947 66.26 76.1004 65.7 76.407 65.22C76.727 64.74 77.227 64.3667 77.907 64.1C78.587 63.82 79.4737 63.68 80.567 63.68H83.427V65.5H80.907C80.1737 65.5 79.667 65.62 79.387 65.86C79.1204 66.1 78.987 66.4 78.987 66.76C78.987 67.16 79.1404 67.48 79.447 67.72C79.767 67.9467 80.2004 68.06 80.747 68.06C81.267 68.06 81.7337 67.94 82.147 67.7C82.5604 67.4467 82.8604 67.08 83.047 66.6L83.527 68.04C83.3004 68.7333 82.887 69.26 82.287 69.62C81.687 69.98 80.9137 70.16 79.967 70.16Z" fill="black"/>
<path d="M95.5308 59.08C96.3841 59.08 97.1441 59.2533 97.8108 59.6C98.4908 59.9333 99.0241 60.4533 99.4108 61.16C99.7974 61.8533 99.9908 62.7467 99.9908 63.84V70H96.8708V64.32C96.8708 63.4533 96.6774 62.8133 96.2908 62.4C95.9174 61.9867 95.3841 61.78 94.6908 61.78C94.1974 61.78 93.7508 61.8867 93.3508 62.1C92.9641 62.3 92.6574 62.6133 92.4308 63.04C92.2174 63.4667 92.1108 64.0133 92.1108 64.68V70H88.9908V59.24H91.9708V62.22L91.4108 61.32C91.7974 60.6 92.3508 60.0467 93.0708 59.66C93.7908 59.2733 94.6108 59.08 95.5308 59.08Z" fill="black"/>
</svg>
