<svg width="161" height="107" viewBox="0 0 161 107" fill="none" xmlns="http://www.w3.org/2000/svg">
<path d="M11 7H161V107H11V7Z" fill="#FFC0CB"/>
<path d="M0 0H150V100H0V0Z" fill="#ADD8E6"/>
<path d="M60.0718 47.08C60.9251 47.08 61.6851 47.2533 62.3518 47.6C63.0318 47.9333 63.5651 48.4533 63.9518 49.16C64.3385 49.8533 64.5318 50.7467 64.5318 51.84V58H61.4118V52.32C61.4118 51.4533 61.2185 50.8133 60.8318 50.4C60.4585 49.9867 59.9251 49.78 59.2318 49.78C58.7385 49.78 58.2918 49.8867 57.8918 50.1C57.5051 50.3 57.1985 50.6133 56.9718 51.04C56.7585 51.4667 56.6518 52.0133 56.6518 52.68V58H53.5318V47.24H56.5118V50.22L55.9518 49.32C56.3385 48.6 56.8918 48.0467 57.6118 47.66C58.3318 47.2733 59.1518 47.08 60.0718 47.08Z" fill="black"/>
<path d="M72.778 58.16C71.5514 58.16 70.4714 57.92 69.538 57.44C68.618 56.96 67.9047 56.3067 67.398 55.48C66.8914 54.64 66.638 53.6867 66.638 52.62C66.638 51.54 66.8847 50.5867 67.378 49.76C67.8847 48.92 68.5714 48.2667 69.438 47.8C70.3047 47.32 71.2847 47.08 72.378 47.08C73.4314 47.08 74.378 47.3067 75.218 47.76C76.0714 48.2 76.7447 48.84 77.238 49.68C77.7314 50.5067 77.9781 51.5 77.9781 52.66C77.9781 52.78 77.9714 52.92 77.958 53.08C77.9447 53.2267 77.9314 53.3667 77.918 53.5H69.178V51.68H76.278L75.078 52.22C75.078 51.66 74.9647 51.1733 74.738 50.76C74.5114 50.3467 74.198 50.0267 73.798 49.8C73.398 49.56 72.9314 49.44 72.398 49.44C71.8647 49.44 71.3914 49.56 70.9781 49.8C70.5781 50.0267 70.2647 50.3533 70.038 50.78C69.8114 51.1933 69.698 51.6867 69.698 52.26V52.74C69.698 53.3267 69.8247 53.8467 70.078 54.3C70.3447 54.74 70.7114 55.08 71.178 55.32C71.658 55.5467 72.218 55.66 72.858 55.66C73.4314 55.66 73.9314 55.5733 74.358 55.4C74.798 55.2267 75.198 54.9667 75.558 54.62L77.218 56.42C76.7247 56.98 76.1047 57.4133 75.358 57.72C74.6114 58.0133 73.7514 58.16 72.778 58.16Z" fill="black"/>
<path d="M78.4023 58L83.2223 51.68L83.1623 53.4L78.5423 47.24H82.0423L84.9623 51.26L83.6423 51.3L86.6623 47.24H89.9823L85.3423 53.34V51.66L90.1423 58H86.6023L83.5423 53.72L84.8423 53.9L81.8023 58H78.4023Z" fill="black"/>
<path d="M96.0568 58.16C94.7901 58.16 93.8035 57.84 93.0968 57.2C92.3901 56.5467 92.0368 55.58 92.0368 54.3V44.86H95.1568V54.26C95.1568 54.7133 95.2768 55.0667 95.5168 55.32C95.7568 55.56 96.0835 55.68 96.4968 55.68C96.9901 55.68 97.4101 55.5467 97.7568 55.28L98.5968 57.48C98.2768 57.7067 97.8901 57.88 97.4368 58C96.9968 58.1067 96.5368 58.16 96.0568 58.16ZM90.3768 49.88V47.48H97.8368V49.88H90.3768Z" fill="black"/>
</svg>
