<svg width="161" height="107" viewBox="0 0 161 107" fill="none" xmlns="http://www.w3.org/2000/svg">
<path d="M11 7H161V107H11V7Z" fill="#FFC0CB"/>
<path d="M0 0H150V100H0V0Z" fill="#ADD8E6"/>
<path d="M38.2414 58.16C37.3347 58.16 36.5414 57.96 35.8614 57.56C35.1814 57.16 34.6481 56.5533 34.2614 55.74C33.8881 54.9133 33.7014 53.8733 33.7014 52.62C33.7014 51.3533 33.8814 50.3133 34.2414 49.5C34.6014 48.6867 35.1214 48.08 35.8014 47.68C36.4814 47.28 37.2947 47.08 38.2414 47.08C39.2547 47.08 40.1614 47.3133 40.9614 47.78C41.7747 48.2333 42.4147 48.8733 42.8814 49.7C43.3614 50.5267 43.6014 51.5 43.6014 52.62C43.6014 53.7533 43.3614 54.7333 42.8814 55.56C42.4147 56.3867 41.7747 57.0267 40.9614 57.48C40.1614 57.9333 39.2547 58.16 38.2414 58.16ZM31.8814 61.88V47.24H34.8614V49.44L34.8014 52.64L35.0014 55.82V61.88H31.8814ZM37.7014 55.6C38.2214 55.6 38.6814 55.48 39.0814 55.24C39.4947 55 39.8214 54.66 40.0614 54.22C40.3147 53.7667 40.4414 53.2333 40.4414 52.62C40.4414 51.9933 40.3147 51.46 40.0614 51.02C39.8214 50.58 39.4947 50.24 39.0814 50C38.6814 49.76 38.2214 49.64 37.7014 49.64C37.1814 49.64 36.7147 49.76 36.3014 50C35.8881 50.24 35.5614 50.58 35.3214 51.02C35.0814 51.46 34.9614 51.9933 34.9614 52.62C34.9614 53.2333 35.0814 53.7667 35.3214 54.22C35.5614 54.66 35.8881 55 36.3014 55.24C36.7147 55.48 37.1814 55.6 37.7014 55.6Z" fill="black"/>
<path d="M45.69 58V47.24H48.67V50.28L48.25 49.4C48.57 48.64 49.0833 48.0667 49.79 47.68C50.4967 47.28 51.3567 47.08 52.37 47.08V49.96C52.2367 49.9467 52.1167 49.94 52.01 49.94C51.9033 49.9267 51.79 49.92 51.67 49.92C50.8167 49.92 50.1233 50.1667 49.59 50.66C49.07 51.14 48.81 51.8933 48.81 52.92V58H45.69Z" fill="black"/>
<path d="M59.487 58.16C58.2604 58.16 57.1804 57.92 56.247 57.44C55.327 56.96 54.6137 56.3067 54.107 55.48C53.6004 54.64 53.347 53.6867 53.347 52.62C53.347 51.54 53.5937 50.5867 54.087 49.76C54.5937 48.92 55.2804 48.2667 56.147 47.8C57.0137 47.32 57.9937 47.08 59.087 47.08C60.1404 47.08 61.087 47.3067 61.927 47.76C62.7804 48.2 63.4537 48.84 63.947 49.68C64.4404 50.5067 64.687 51.5 64.687 52.66C64.687 52.78 64.6804 52.92 64.667 53.08C64.6537 53.2267 64.6404 53.3667 64.627 53.5H55.887V51.68H62.987L61.787 52.22C61.787 51.66 61.6737 51.1733 61.447 50.76C61.2204 50.3467 60.907 50.0267 60.507 49.8C60.107 49.56 59.6404 49.44 59.107 49.44C58.5737 49.44 58.1004 49.56 57.687 49.8C57.287 50.0267 56.9737 50.3533 56.747 50.78C56.5204 51.1933 56.407 51.6867 56.407 52.26V52.74C56.407 53.3267 56.5337 53.8467 56.787 54.3C57.0537 54.74 57.4204 55.08 57.887 55.32C58.367 55.5467 58.927 55.66 59.567 55.66C60.1404 55.66 60.6404 55.5733 61.067 55.4C61.507 55.2267 61.907 54.9667 62.267 54.62L63.927 56.42C63.4337 56.98 62.8137 57.4133 62.067 57.72C61.3204 58.0133 60.4604 58.16 59.487 58.16Z" fill="black"/>
<path d="M69.4889 58L64.9689 47.24H68.1889L71.9489 56.5H70.3489L74.2489 47.24H77.2489L72.7089 58H69.4889Z" fill="black"/>
<path d="M78.522 58V47.24H81.642V58H78.522ZM80.082 45.74C79.5087 45.74 79.042 45.5733 78.682 45.24C78.322 44.9067 78.142 44.4933 78.142 44C78.142 43.5067 78.322 43.0933 78.682 42.76C79.042 42.4267 79.5087 42.26 80.082 42.26C80.6554 42.26 81.122 42.42 81.482 42.74C81.842 43.0467 82.022 43.4467 82.022 43.94C82.022 44.46 81.842 44.8933 81.482 45.24C81.1354 45.5733 80.6687 45.74 80.082 45.74Z" fill="black"/>
<path d="M89.6577 58.16C88.511 58.16 87.491 57.92 86.5977 57.44C85.7177 56.96 85.0177 56.3067 84.4977 55.48C83.991 54.64 83.7377 53.6867 83.7377 52.62C83.7377 51.54 83.991 50.5867 84.4977 49.76C85.0177 48.92 85.7177 48.2667 86.5977 47.8C87.491 47.32 88.511 47.08 89.6577 47.08C90.791 47.08 91.8043 47.32 92.6977 47.8C93.591 48.2667 94.291 48.9133 94.7977 49.74C95.3043 50.5667 95.5577 51.5267 95.5577 52.62C95.5577 53.6867 95.3043 54.64 94.7977 55.48C94.291 56.3067 93.591 56.96 92.6977 57.44C91.8043 57.92 90.791 58.16 89.6577 58.16ZM89.6577 55.6C90.1777 55.6 90.6443 55.48 91.0577 55.24C91.471 55 91.7977 54.66 92.0377 54.22C92.2777 53.7667 92.3977 53.2333 92.3977 52.62C92.3977 51.9933 92.2777 51.46 92.0377 51.02C91.7977 50.58 91.471 50.24 91.0577 50C90.6443 49.76 90.1777 49.64 89.6577 49.64C89.1377 49.64 88.671 49.76 88.2577 50C87.8443 50.24 87.511 50.58 87.2577 51.02C87.0177 51.46 86.8977 51.9933 86.8977 52.62C86.8977 53.2333 87.0177 53.7667 87.2577 54.22C87.511 54.66 87.8443 55 88.2577 55.24C88.671 55.48 89.1377 55.6 89.6577 55.6Z" fill="black"/>
<path d="M102.183 58.16C101.29 58.16 100.49 57.9867 99.7831 57.64C99.0898 57.2933 98.5498 56.7667 98.1631 56.06C97.7765 55.34 97.5831 54.4267 97.5831 53.32V47.24H100.703V52.86C100.703 53.7533 100.89 54.4133 101.263 54.84C101.65 55.2533 102.19 55.46 102.883 55.46C103.363 55.46 103.79 55.36 104.163 55.16C104.536 54.9467 104.83 54.6267 105.043 54.2C105.256 53.76 105.363 53.2133 105.363 52.56V47.24H108.483V58H105.523V55.04L106.063 55.9C105.703 56.6467 105.17 57.2133 104.463 57.6C103.77 57.9733 103.01 58.16 102.183 58.16Z" fill="black"/>
<path d="M114.994 58.16C114.074 58.16 113.187 58.0533 112.334 57.84C111.494 57.6133 110.827 57.3333 110.334 57L111.374 54.76C111.867 55.0667 112.447 55.32 113.114 55.52C113.794 55.7067 114.46 55.8 115.114 55.8C115.834 55.8 116.34 55.7133 116.634 55.54C116.94 55.3667 117.094 55.1267 117.094 54.82C117.094 54.5667 116.974 54.38 116.734 54.26C116.507 54.1267 116.2 54.0267 115.814 53.96C115.427 53.8933 115 53.8267 114.534 53.76C114.08 53.6933 113.62 53.6067 113.154 53.5C112.687 53.38 112.26 53.2067 111.874 52.98C111.487 52.7533 111.174 52.4467 110.934 52.06C110.707 51.6733 110.594 51.1733 110.594 50.56C110.594 49.88 110.787 49.28 111.174 48.76C111.574 48.24 112.147 47.8333 112.894 47.54C113.64 47.2333 114.534 47.08 115.574 47.08C116.307 47.08 117.054 47.16 117.814 47.32C118.574 47.48 119.207 47.7133 119.714 48.02L118.674 50.24C118.154 49.9333 117.627 49.7267 117.094 49.62C116.574 49.5 116.067 49.44 115.574 49.44C114.88 49.44 114.374 49.5333 114.054 49.72C113.734 49.9067 113.574 50.1467 113.574 50.44C113.574 50.7067 113.687 50.9067 113.914 51.04C114.154 51.1733 114.467 51.28 114.854 51.36C115.24 51.44 115.66 51.5133 116.114 51.58C116.58 51.6333 117.047 51.72 117.514 51.84C117.98 51.96 118.4 52.1333 118.774 52.36C119.16 52.5733 119.474 52.8733 119.714 53.26C119.954 53.6333 120.074 54.1267 120.074 54.74C120.074 55.4067 119.874 56 119.474 56.52C119.074 57.0267 118.494 57.4267 117.734 57.72C116.987 58.0133 116.074 58.16 114.994 58.16Z" fill="black"/>
</svg>
