<svg width="161" height="107" viewBox="0 0 161 107" fill="none" xmlns="http://www.w3.org/2000/svg">
<path d="M11 7H161V107H11V7Z" fill="#FFC0CB"/>
<path d="M0 0H150V100H0V0Z" fill="#ADD8E6"/>
<path d="M37.3934 46.128C36.6787 46.128 36.0387 45.9893 35.4734 45.712C34.9187 45.4347 34.4867 45.0133 34.1774 44.448C33.868 43.872 33.7134 43.1413 33.7134 42.256V37.392H36.2094V41.888C36.2094 42.6027 36.3587 43.1307 36.6574 43.472C36.9667 43.8027 37.3987 43.968 37.9534 43.968C38.3374 43.968 38.6787 43.888 38.9774 43.728C39.276 43.5573 39.5107 43.3013 39.6814 42.96C39.852 42.608 39.9374 42.1707 39.9374 41.648V37.392H42.4334V46H40.0654V43.632L40.4974 44.32C40.2094 44.9173 39.7827 45.3707 39.2174 45.68C38.6627 45.9787 38.0547 46.128 37.3934 46.128Z" fill="black"/>
<path d="M49.8338 46.128C49.1084 46.128 48.4737 45.968 47.9297 45.648C47.3857 45.328 46.9591 44.8427 46.6497 44.192C46.3511 43.5307 46.2018 42.6987 46.2018 41.696C46.2018 40.6827 46.3458 39.8507 46.6338 39.2C46.9218 38.5493 47.3378 38.064 47.8818 37.744C48.4258 37.424 49.0764 37.264 49.8338 37.264C50.6444 37.264 51.3698 37.4507 52.0098 37.824C52.6604 38.1867 53.1724 38.6987 53.5457 39.36C53.9297 40.0213 54.1217 40.8 54.1217 41.696C54.1217 42.6027 53.9297 43.3867 53.5457 44.048C53.1724 44.7093 52.6604 45.2213 52.0098 45.584C51.3698 45.9467 50.6444 46.128 49.8338 46.128ZM44.7458 49.104V37.392H47.1297V39.152L47.0817 41.712L47.2417 44.256V49.104H44.7458ZM49.4017 44.08C49.8177 44.08 50.1857 43.984 50.5057 43.792C50.8364 43.6 51.0977 43.328 51.2897 42.976C51.4924 42.6133 51.5938 42.1867 51.5938 41.696C51.5938 41.1947 51.4924 40.768 51.2897 40.416C51.0977 40.064 50.8364 39.792 50.5057 39.6C50.1857 39.408 49.8177 39.312 49.4017 39.312C48.9857 39.312 48.6124 39.408 48.2817 39.6C47.9511 39.792 47.6897 40.064 47.4977 40.416C47.3057 40.768 47.2098 41.1947 47.2098 41.696C47.2098 42.1867 47.3057 42.6133 47.4977 42.976C47.6897 43.328 47.9511 43.6 48.2817 43.792C48.6124 43.984 48.9857 44.08 49.4017 44.08Z" fill="black"/>
<path d="M59.9526 46.128C59.0246 46.128 58.198 45.9413 57.4726 45.568C56.7473 45.184 56.1766 44.656 55.7606 43.984C55.3553 43.312 55.1526 42.5493 55.1526 41.696C55.1526 40.832 55.3553 40.0693 55.7606 39.408C56.1766 38.736 56.7473 38.2133 57.4726 37.84C58.198 37.456 59.0246 37.264 59.9526 37.264C60.8593 37.264 61.6486 37.456 62.3206 37.84C62.9926 38.2133 63.4886 38.752 63.8086 39.456L61.8726 40.496C61.6486 40.0907 61.366 39.792 61.0246 39.6C60.694 39.408 60.3313 39.312 59.9366 39.312C59.51 39.312 59.126 39.408 58.7846 39.6C58.4433 39.792 58.1713 40.064 57.9686 40.416C57.7766 40.768 57.6806 41.1947 57.6806 41.696C57.6806 42.1973 57.7766 42.624 57.9686 42.976C58.1713 43.328 58.4433 43.6 58.7846 43.792C59.126 43.984 59.51 44.08 59.9366 44.08C60.3313 44.08 60.694 43.9893 61.0246 43.808C61.366 43.616 61.6486 43.312 61.8726 42.896L63.8086 43.952C63.4886 44.6453 62.9926 45.184 62.3206 45.568C61.6486 45.9413 60.8593 46.128 59.9526 46.128Z" fill="black"/>
<path d="M69.2324 46.128C68.315 46.128 67.499 45.936 66.7844 45.552C66.0804 45.168 65.5204 44.6453 65.1044 43.984C64.699 43.312 64.4964 42.5493 64.4964 41.696C64.4964 40.832 64.699 40.0693 65.1044 39.408C65.5204 38.736 66.0804 38.2133 66.7844 37.84C67.499 37.456 68.315 37.264 69.2324 37.264C70.139 37.264 70.9497 37.456 71.6644 37.84C72.379 38.2133 72.939 38.7307 73.3444 39.392C73.7497 40.0533 73.9524 40.8213 73.9524 41.696C73.9524 42.5493 73.7497 43.312 73.3444 43.984C72.939 44.6453 72.379 45.168 71.6644 45.552C70.9497 45.936 70.139 46.128 69.2324 46.128ZM69.2324 44.08C69.6484 44.08 70.0217 43.984 70.3524 43.792C70.683 43.6 70.9444 43.328 71.1364 42.976C71.3284 42.6133 71.4244 42.1867 71.4244 41.696C71.4244 41.1947 71.3284 40.768 71.1364 40.416C70.9444 40.064 70.683 39.792 70.3524 39.6C70.0217 39.408 69.6484 39.312 69.2324 39.312C68.8164 39.312 68.443 39.408 68.1124 39.6C67.7817 39.792 67.515 40.064 67.3124 40.416C67.1204 40.768 67.0244 41.1947 67.0244 41.696C67.0244 42.1867 67.1204 42.6133 67.3124 42.976C67.515 43.328 67.7817 43.6 68.1124 43.792C68.443 43.984 68.8164 44.08 69.2324 44.08Z" fill="black"/>
<path d="M86.6448 37.264C87.3274 37.264 87.9301 37.4027 88.4528 37.68C88.9861 37.9467 89.4021 38.3627 89.7008 38.928C90.0101 39.4827 90.1647 40.1973 90.1647 41.072V46H87.6687V41.456C87.6687 40.7627 87.5247 40.2507 87.2367 39.92C86.9487 39.5893 86.5434 39.424 86.0208 39.424C85.6581 39.424 85.3328 39.5093 85.0448 39.68C84.7568 39.84 84.5327 40.0853 84.3727 40.416C84.2127 40.7467 84.1328 41.168 84.1328 41.68V46H81.6367V41.456C81.6367 40.7627 81.4927 40.2507 81.2048 39.92C80.9274 39.5893 80.5274 39.424 80.0048 39.424C79.6421 39.424 79.3167 39.5093 79.0287 39.68C78.7407 39.84 78.5168 40.0853 78.3568 40.416C78.1968 40.7467 78.1168 41.168 78.1168 41.68V46H75.6208V37.392H78.0048V39.744L77.5567 39.056C77.8554 38.4693 78.2767 38.0267 78.8207 37.728C79.3754 37.4187 80.0047 37.264 80.7087 37.264C81.4981 37.264 82.1861 37.4667 82.7728 37.872C83.3701 38.2667 83.7647 38.8747 83.9567 39.696L83.0768 39.456C83.3648 38.784 83.8234 38.2507 84.4528 37.856C85.0928 37.4613 85.8234 37.264 86.6448 37.264Z" fill="black"/>
<path d="M92.402 46V37.392H94.898V46H92.402ZM93.65 36.192C93.1913 36.192 92.818 36.0587 92.53 35.792C92.242 35.5253 92.098 35.1947 92.098 34.8C92.098 34.4053 92.242 34.0747 92.53 33.808C92.818 33.5413 93.1913 33.408 93.65 33.408C94.1087 33.408 94.482 33.536 94.77 33.792C95.058 34.0373 95.202 34.3573 95.202 34.752C95.202 35.168 95.058 35.5147 94.77 35.792C94.4927 36.0587 94.1193 36.192 93.65 36.192Z" fill="black"/>
<path d="M102.447 37.264C103.129 37.264 103.737 37.4027 104.271 37.68C104.815 37.9467 105.241 38.3627 105.55 38.928C105.86 39.4827 106.015 40.1973 106.015 41.072V46H103.519V41.456C103.519 40.7627 103.364 40.2507 103.054 39.92C102.756 39.5893 102.329 39.424 101.774 39.424C101.38 39.424 101.022 39.5093 100.702 39.68C100.393 39.84 100.148 40.0907 99.9665 40.432C99.7958 40.7733 99.7105 41.2107 99.7105 41.744V46H97.2145V37.392H99.5985V39.776L99.1505 39.056C99.4598 38.48 99.9025 38.0373 100.479 37.728C101.055 37.4187 101.711 37.264 102.447 37.264Z" fill="black"/>
<path d="M112.387 49.232C111.577 49.232 110.793 49.1307 110.035 48.928C109.289 48.736 108.665 48.4427 108.163 48.048L109.156 46.256C109.518 46.5547 109.977 46.7893 110.532 46.96C111.097 47.1413 111.652 47.232 112.196 47.232C113.081 47.232 113.721 47.0347 114.116 46.64C114.521 46.2453 114.724 45.6587 114.724 44.88V43.584L114.883 41.424L114.852 39.248V37.392H117.219V44.56C117.219 46.16 116.803 47.3387 115.971 48.096C115.139 48.8533 113.945 49.232 112.387 49.232ZM112.004 45.584C111.204 45.584 110.478 45.4133 109.827 45.072C109.187 44.72 108.67 44.2347 108.275 43.616C107.891 42.9867 107.7 42.256 107.7 41.424C107.7 40.5813 107.891 39.8507 108.275 39.232C108.67 38.6027 109.187 38.1173 109.827 37.776C110.478 37.4347 111.204 37.264 112.004 37.264C112.729 37.264 113.369 37.4133 113.924 37.712C114.478 38 114.91 38.4533 115.219 39.072C115.529 39.68 115.684 40.464 115.684 41.424C115.684 42.3733 115.529 43.1573 115.219 43.776C114.91 44.384 114.478 44.8373 113.924 45.136C113.369 45.4347 112.729 45.584 112.004 45.584ZM112.499 43.536C112.937 43.536 113.326 43.4507 113.668 43.28C114.009 43.0987 114.275 42.848 114.467 42.528C114.659 42.208 114.756 41.84 114.756 41.424C114.756 40.9973 114.659 40.6293 114.467 40.32C114.275 40 114.009 39.7547 113.668 39.584C113.326 39.4027 112.937 39.312 112.499 39.312C112.062 39.312 111.673 39.4027 111.331 39.584C110.99 39.7547 110.718 40 110.516 40.32C110.324 40.6293 110.228 40.9973 110.228 41.424C110.228 41.84 110.324 42.208 110.516 42.528C110.718 42.848 110.99 43.0987 111.331 43.28C111.673 43.4507 112.062 43.536 112.499 43.536Z" fill="black"/>
<path d="M47.5759 66.128C46.8506 66.128 46.2159 65.968 45.6719 65.648C45.1279 65.328 44.7013 64.8427 44.3919 64.192C44.0933 63.5307 43.9439 62.6987 43.9439 61.696C43.9439 60.6827 44.0879 59.8507 44.3759 59.2C44.6639 58.5493 45.0799 58.064 45.6239 57.744C46.1679 57.424 46.8186 57.264 47.5759 57.264C48.3866 57.264 49.1119 57.4507 49.7519 57.824C50.4026 58.1867 50.9146 58.6987 51.2879 59.36C51.6719 60.0213 51.8639 60.8 51.8639 61.696C51.8639 62.6027 51.6719 63.3867 51.2879 64.048C50.9146 64.7093 50.4026 65.2213 49.7519 65.584C49.1119 65.9467 48.3866 66.128 47.5759 66.128ZM42.4879 69.104V57.392H44.8719V59.152L44.8239 61.712L44.9839 64.256V69.104H42.4879ZM47.1439 64.08C47.5599 64.08 47.9279 63.984 48.2479 63.792C48.5786 63.6 48.8399 63.328 49.0319 62.976C49.2346 62.6133 49.3359 62.1867 49.3359 61.696C49.3359 61.1947 49.2346 60.768 49.0319 60.416C48.8399 60.064 48.5786 59.792 48.2479 59.6C47.9279 59.408 47.5599 59.312 47.1439 59.312C46.7279 59.312 46.3546 59.408 46.0239 59.6C45.6933 59.792 45.4319 60.064 45.2399 60.416C45.0479 60.768 44.9519 61.1947 44.9519 61.696C44.9519 62.1867 45.0479 62.6133 45.2399 62.976C45.4319 63.328 45.6933 63.6 46.0239 63.792C46.3546 63.984 46.7279 64.08 47.1439 64.08Z" fill="black"/>
<path d="M53.5348 66V57.392H55.9188V59.824L55.5828 59.12C55.8388 58.512 56.2495 58.0533 56.8148 57.744C57.3801 57.424 58.0681 57.264 58.8788 57.264V59.568C58.7721 59.5573 58.6761 59.552 58.5908 59.552C58.5055 59.5413 58.4148 59.536 58.3188 59.536C57.6361 59.536 57.0815 59.7333 56.6548 60.128C56.2388 60.512 56.0308 61.1147 56.0308 61.936V66H53.5348Z" fill="black"/>
<path d="M64.3964 66.128C63.4791 66.128 62.6631 65.936 61.9484 65.552C61.2444 65.168 60.6844 64.6453 60.2684 63.984C59.8631 63.312 59.6604 62.5493 59.6604 61.696C59.6604 60.832 59.8631 60.0693 60.2684 59.408C60.6844 58.736 61.2444 58.2133 61.9484 57.84C62.6631 57.456 63.4791 57.264 64.3964 57.264C65.3031 57.264 66.1138 57.456 66.8284 57.84C67.5431 58.2133 68.1031 58.7307 68.5084 59.392C68.9138 60.0533 69.1164 60.8213 69.1164 61.696C69.1164 62.5493 68.9138 63.312 68.5084 63.984C68.1031 64.6453 67.5431 65.168 66.8284 65.552C66.1138 65.936 65.3031 66.128 64.3964 66.128ZM64.3964 64.08C64.8124 64.08 65.1858 63.984 65.5164 63.792C65.8471 63.6 66.1084 63.328 66.3004 62.976C66.4924 62.6133 66.5884 62.1867 66.5884 61.696C66.5884 61.1947 66.4924 60.768 66.3004 60.416C66.1084 60.064 65.8471 59.792 65.5164 59.6C65.1858 59.408 64.8124 59.312 64.3964 59.312C63.9804 59.312 63.6071 59.408 63.2764 59.6C62.9458 59.792 62.6791 60.064 62.4764 60.416C62.2844 60.768 62.1884 61.1947 62.1884 61.696C62.1884 62.1867 62.2844 62.6133 62.4764 62.976C62.6791 63.328 62.9458 63.6 63.2764 63.792C63.6071 63.984 63.9804 64.08 64.3964 64.08Z" fill="black"/>
<path d="M70.1448 69.232C69.7608 69.232 69.3928 69.1893 69.0408 69.104C68.6888 69.0293 68.3901 68.912 68.1448 68.752L68.8168 66.944C69.1048 67.1467 69.4568 67.248 69.8728 67.248C70.1821 67.248 70.4275 67.1413 70.6088 66.928C70.8008 66.7253 70.8968 66.416 70.8968 66V57.392H73.3928V65.984C73.3928 66.976 73.1101 67.7653 72.5448 68.352C71.9795 68.9387 71.1795 69.232 70.1448 69.232ZM72.1448 56.192C71.6861 56.192 71.3128 56.0587 71.0248 55.792C70.7368 55.5253 70.5928 55.1947 70.5928 54.8C70.5928 54.4053 70.7368 54.0747 71.0248 53.808C71.3128 53.5413 71.6861 53.408 72.1448 53.408C72.6035 53.408 72.9768 53.536 73.2648 53.792C73.5528 54.0373 73.6968 54.3573 73.6968 54.752C73.6968 55.168 73.5528 55.5147 73.2648 55.792C72.9875 56.0587 72.6141 56.192 72.1448 56.192Z" fill="black"/>
<path d="M79.9631 66.128C78.9817 66.128 78.1177 65.936 77.3711 65.552C76.6351 65.168 76.0644 64.6453 75.6591 63.984C75.2537 63.312 75.0511 62.5493 75.0511 61.696C75.0511 60.832 75.2484 60.0693 75.6431 59.408C76.0484 58.736 76.5977 58.2133 77.2911 57.84C77.9844 57.456 78.7684 57.264 79.6431 57.264C80.4857 57.264 81.2431 57.4453 81.9151 57.808C82.5977 58.16 83.1364 58.672 83.5311 59.344C83.9257 60.0053 84.1231 60.8 84.1231 61.728C84.1231 61.824 84.1177 61.936 84.1071 62.064C84.0964 62.1813 84.0857 62.2933 84.0751 62.4H77.0831V60.944H82.7631L81.8031 61.376C81.8031 60.928 81.7124 60.5387 81.5311 60.208C81.3497 59.8773 81.0991 59.6213 80.7791 59.44C80.4591 59.248 80.0857 59.152 79.6591 59.152C79.2324 59.152 78.8537 59.248 78.5231 59.44C78.2031 59.6213 77.9524 59.8827 77.7711 60.224C77.5897 60.5547 77.4991 60.9493 77.4991 61.408V61.792C77.4991 62.2613 77.6004 62.6773 77.8031 63.04C78.0164 63.392 78.3097 63.664 78.6831 63.856C79.0671 64.0373 79.5151 64.128 80.0271 64.128C80.4857 64.128 80.8857 64.0587 81.2271 63.92C81.5791 63.7813 81.8991 63.5733 82.1871 63.296L83.5151 64.736C83.1204 65.184 82.6244 65.5307 82.0271 65.776C81.4297 66.0107 80.7417 66.128 79.9631 66.128Z" fill="black"/>
<path d="M89.9448 66.128C89.0168 66.128 88.1901 65.9413 87.4648 65.568C86.7395 65.184 86.1688 64.656 85.7528 63.984C85.3475 63.312 85.1448 62.5493 85.1448 61.696C85.1448 60.832 85.3475 60.0693 85.7528 59.408C86.1688 58.736 86.7395 58.2133 87.4648 57.84C88.1901 57.456 89.0168 57.264 89.9448 57.264C90.8515 57.264 91.6408 57.456 92.3128 57.84C92.9848 58.2133 93.4808 58.752 93.8008 59.456L91.8648 60.496C91.6408 60.0907 91.3581 59.792 91.0168 59.6C90.6861 59.408 90.3235 59.312 89.9288 59.312C89.5021 59.312 89.1181 59.408 88.7768 59.6C88.4355 59.792 88.1635 60.064 87.9608 60.416C87.7688 60.768 87.6728 61.1947 87.6728 61.696C87.6728 62.1973 87.7688 62.624 87.9608 62.976C88.1635 63.328 88.4355 63.6 88.7768 63.792C89.1181 63.984 89.5021 64.08 89.9288 64.08C90.3235 64.08 90.6861 63.9893 91.0168 63.808C91.3581 63.616 91.6408 63.312 91.8648 62.896L93.8008 63.952C93.4808 64.6453 92.9848 65.184 92.3128 65.568C91.6408 65.9413 90.8515 66.128 89.9448 66.128Z" fill="black"/>
<path d="M98.8829 66.128C97.8696 66.128 97.0803 65.872 96.5149 65.36C95.9496 64.8373 95.6669 64.064 95.6669 63.04V55.488H98.1629V63.008C98.1629 63.3707 98.2589 63.6533 98.4509 63.856C98.6429 64.048 98.9043 64.144 99.2349 64.144C99.6296 64.144 99.9656 64.0373 100.243 63.824L100.915 65.584C100.659 65.7653 100.35 65.904 99.9869 66C99.6349 66.0853 99.2669 66.128 98.8829 66.128ZM94.3389 59.504V57.584H100.307V59.504H94.3389Z" fill="black"/>
<path d="M105.212 66.128C104.476 66.128 103.767 66.0427 103.084 65.872C102.412 65.6907 101.879 65.4667 101.484 65.2L102.316 63.408C102.711 63.6533 103.175 63.856 103.708 64.016C104.252 64.1653 104.785 64.24 105.308 64.24C105.884 64.24 106.289 64.1707 106.524 64.032C106.769 63.8933 106.892 63.7013 106.892 63.456C106.892 63.2533 106.796 63.104 106.604 63.008C106.423 62.9013 106.177 62.8213 105.868 62.768C105.559 62.7147 105.217 62.6613 104.844 62.608C104.481 62.5547 104.113 62.4853 103.74 62.4C103.367 62.304 103.025 62.1653 102.716 61.984C102.407 61.8027 102.156 61.5573 101.964 61.248C101.783 60.9387 101.692 60.5387 101.692 60.048C101.692 59.504 101.847 59.024 102.156 58.608C102.476 58.192 102.935 57.8667 103.532 57.632C104.129 57.3867 104.844 57.264 105.676 57.264C106.263 57.264 106.86 57.328 107.468 57.456C108.076 57.584 108.583 57.7707 108.988 58.016L108.156 59.792C107.74 59.5467 107.319 59.3813 106.892 59.296C106.476 59.2 106.071 59.152 105.676 59.152C105.121 59.152 104.716 59.2267 104.46 59.376C104.204 59.5253 104.076 59.7173 104.076 59.952C104.076 60.1653 104.167 60.3253 104.348 60.432C104.54 60.5387 104.791 60.624 105.1 60.688C105.409 60.752 105.745 60.8107 106.108 60.864C106.481 60.9067 106.855 60.976 107.228 61.072C107.601 61.168 107.937 61.3067 108.236 61.488C108.545 61.6587 108.796 61.8987 108.988 62.208C109.18 62.5067 109.276 62.9013 109.276 63.392C109.276 63.9253 109.116 64.4 108.796 64.816C108.476 65.2213 108.012 65.5413 107.404 65.776C106.807 66.0107 106.076 66.128 105.212 66.128Z" fill="black"/>
</svg>
